<svg id="Layer_1" data-name="Layer 1" xmlns="http://www.w3.org/2000/svg" viewBox="0 0 28.51 33.89"><defs><style>.cls-1{fill:none;stroke:#2d2e83;stroke-miterlimit:10;stroke-width:0.75px;}</style></defs><polygon class="cls-1" points="0.56 0.38 0.38 33.52 27.97 33.52 28.13 0.43 0.56 0.38"/><polyline class="cls-1" points="5.98 3.78 3.56 3.8 3.36 30.21 0.38 33.52"/><line class="cls-1" x1="0.56" y1="0.38" x2="3.56" y2="3.8"/><polyline class="cls-1" points="7.19 3.78 25.1 3.78 28.13 0.43"/><polyline class="cls-1" points="27.71 33.6 24.78 30.29 24.95 3.95"/><line class="cls-1" x1="3.36" y1="30.21" x2="24.78" y2="30.29"/><path class="cls-1" d="M13.53,6.88C12.36,10.18,9.62,10,9.62,10S7.19,21.16,12.75,20.6c2.49-.26,0,2.71,0,2.71A19.32,19.32,0,0,0,9.23,25.2c-3.8,2.61-3.76,5.19-3.76,5.19" transform="translate(-0.78 -0.66)"/><path class="cls-1" d="M9.27,25a16.46,16.46,0,0,0-2.48-7.7c-.21-10.26,6.12-10.6,6.12-10.6,6-1.88,7.77,6.1,7.77,6.1-.95,4.46,1.78,9.47,1.78,9.47,1.44,6.77-6,8.63-6,8.63" transform="translate(-0.78 -0.66)"/><path class="cls-1" d="M8.09,20.69a3,3,0,0,0-2.08,3" transform="translate(-0.78 -0.66)"/><line class="cls-1" x1="3.42" y1="22.02" x2="5.35" y2="22.08"/><path class="cls-1" d="M18.13,30.29a6.48,6.48,0,0,1,.71-4.4" transform="translate(-0.78 -0.66)"/><path class="cls-1" d="M11.65,30.9S7,29.5,7.74,26.39" transform="translate(-0.78 -0.66)"/><path class="cls-1" d="M4.16,27.37" transform="translate(-0.78 -0.66)"/><path class="cls-1" d="M25.73,14.43s-3.49-.18-2.43,4" transform="translate(-0.78 -0.66)"/><line class="cls-1" x1="20.03" y1="17" x2="22.08" y2="16.82"/><path class="cls-1" d="M25.6,26.69a19.11,19.11,0,0,0-2.89-.76" transform="translate(-0.78 -0.66)"/><path class="cls-1" d="M25.58,28.85s-2.33-1.67-3.49-1.8" transform="translate(-0.78 -0.66)"/><path class="cls-1" d="M13.53,6.88a2.52,2.52,0,0,0,1.92,2.9c3.45.79,1.66,9.28,1.66,9.28,2.64,3,1.56,5.29,1.56,5.29" transform="translate(-0.78 -0.66)"/><path class="cls-1" d="M13.54,13.09s1,1.36,2.51-.13" transform="translate(-0.78 -0.66)"/><path class="cls-1" d="M11.13,18a1.6,1.6,0,0,0,2.35.09" transform="translate(-0.78 -0.66)"/><path class="cls-1" d="M10.17,13.2s1.33-.6,1.77.09v3.14s.39.55,1.46,0" transform="translate(-0.78 -0.66)"/></svg>