<svg id="Layer_1" data-name="Layer 1" xmlns="http://www.w3.org/2000/svg" viewBox="0 0 28.76 25.78"><defs><style>.cls-1{fill:none;stroke:#c54d0a;stroke-miterlimit:10;stroke-width:0.75px;}</style></defs><path class="cls-1" d="M10.69,10.18S9.12,5.09,14.33,4.25c0,0,5.68-.53,4.2,8.77" transform="translate(-0.3 -3.87)"/><path class="cls-1" d="M13.56,11.21l-.29,1.57s-2.19-.8-3.74,1.89c0,0-2.65,2.58-1.81,5.67,0,0,.77,1.45,5.55-2.35" transform="translate(-0.3 -3.87)"/><circle class="cls-1" cx="13" cy="12.26" r="1.3"/><circle class="cls-1" cx="15.79" cy="12.38" r="1.3"/><path class="cls-1" d="M9.78,17.84S10.91,16.4,12,16.63" transform="translate(-0.3 -3.87)"/><path class="cls-1" d="M17.39,16.26s2.08.25,2.28,1.58" transform="translate(-0.3 -3.87)"/><path class="cls-1" d="M16.09,11.41l.28,1.37s2.65-.38,3.3,1.36" transform="translate(-0.3 -3.87)"/><circle class="cls-1" cx="14.49" cy="5.36" r="2.33"/><line class="cls-1" x1="10.52" y1="15.85" x2="18.35" y2="15.94"/><path class="cls-1" d="M16.09,17.56a8.8,8.8,0,0,0,5.19,3.22s2.84-.63-.58-5.45" transform="translate(-0.3 -3.87)"/><path class="cls-1" d="M8.43,20.61v.88S.68,20.94.74,24C.74,24-1,28.86,13,29.19c0,0,8.65.71,9.11-1.78,0,0-.36-2.12-10.34-4.27" transform="translate(-0.3 -3.87)"/><path class="cls-1" d="M15.07,24c4.09-3,11-2.5,11-2.5s4,.28,2.13,3.5c0,0-1.42,3.26-6.91,3.43" transform="translate(-0.3 -3.87)"/><line class="cls-1" x1="20.99" y1="16.91" x2="21.76" y2="17.87"/><path class="cls-1" d="M24.77,10.29s2.26-1,2.32,1.15c0,0,0,1.67-3.95,2.12,0,0-1.9-3.42-.46-4.31C22.68,9.25,24.44,7.88,24.77,10.29Z" transform="translate(-0.3 -3.87)"/></svg>