<svg id="Layer_1" data-name="Layer 1" xmlns="http://www.w3.org/2000/svg" viewBox="0 0 28.04 26.53"><defs><style>.cls-1{fill:none;stroke:#1891d5;stroke-miterlimit:10;stroke-width:0.75px;}</style></defs><path class="cls-1" d="M10.25,9S8.66,3.83,13.93,3c0,0,5.75-.54,4.25,8.87" transform="translate(-0.31 -2.6)"/><path class="cls-1" d="M13.15,10l-.29,1.59s-2.22-.81-3.79,1.91c0,0-2.68,2.61-1.83,5.73,0,0,.78,1.47,5.62-2.37" transform="translate(-0.31 -2.6)"/><circle class="cls-1" cx="12.58" cy="12.4" r="1.32"/><circle class="cls-1" cx="15.4" cy="12.52" r="1.32"/><path class="cls-1" d="M9.33,16.73s1.14-1.46,2.24-1.23" transform="translate(-0.31 -2.6)"/><path class="cls-1" d="M17,15.13s2.1.25,2.3,1.6" transform="translate(-0.31 -2.6)"/><path class="cls-1" d="M15.71,10.22,16,11.61s2.68-.39,3.34,1.37" transform="translate(-0.31 -2.6)"/><circle class="cls-1" cx="14.08" cy="5.42" r="2.36"/><line class="cls-1" x1="10.07" y1="16.03" x2="17.99" y2="16.12"/><path class="cls-1" d="M15.71,16.44A8.9,8.9,0,0,0,21,19.7s2.87-.64-.59-5.51" transform="translate(-0.31 -2.6)"/><line class="cls-1" x1="20.66" y1="17.1" x2="21.44" y2="18.07"/><path class="cls-1" d="M24.49,9.09s2.29-1,2.35,1.16c0,0,0,1.69-4,2.15,0,0-1.92-3.46-.46-4.36C22.38,8,24.16,6.65,24.49,9.09Z" transform="translate(-0.31 -2.6)"/><path class="cls-1" d="M10.17,21.5S5.37,19.25,1,21.24" transform="translate(-0.31 -2.6)"/><path class="cls-1" d="M.55,25.49s5.37,4.32,19.85,3a6.22,6.22,0,0,0,2.59-1s1.22-3-11.52-5.77" transform="translate(-0.31 -2.6)"/><path class="cls-1" d="M28.06,20.42s-7-1-12.14,2.47" transform="translate(-0.31 -2.6)"/><path class="cls-1" d="M23,27.52a16.38,16.38,0,0,0,5.25-.72" transform="translate(-0.31 -2.6)"/><path class="cls-1" d="M7.24,19.25a4.37,4.37,0,0,1-.81,1.17" transform="translate(-0.31 -2.6)"/></svg>