<svg id="Layer_1" data-name="Layer 1" xmlns="http://www.w3.org/2000/svg" xmlns:xlink="http://www.w3.org/1999/xlink" viewBox="0 0 127.09 38.64"><defs><style>.cls-1{fill:#cf5228;}.cls-2{fill:none;stroke:#cf5228;stroke-miterlimit:10;}.cls-3{clip-path:url(#clip-path);}.cls-4{clip-path:url(#clip-path-2);}</style><clipPath id="clip-path" transform="translate(-4.4 -4.23)"><path class="cls-1" d="M117.66,24.5c-2.08-2-2.58-3.52-1.49-4.66s2.61-.69,4.69,1.28l1.1,1a.39.39,0,0,1,0,.45l-3,3.15Zm-4.47-2.29c.08,1.33,1,2.87,2.89,4.61l1,.95-5.54,5.85-.12.07a.39.39,0,0,1-.33,0l-1.1-1c-2.07-2-2.59-3.5-1.53-4.61s2.66-.74,4.74,1.23l.84.8,1.9-2-.52-.49q-2.76-2.62-4.76-2.63a5,5,0,0,0-3.7,1.79,4.76,4.76,0,0,0-1.53,3.71q.16,1.92,3,4.56l1.52,1.43a1.43,1.43,0,0,0,2-.19L116,31.88l1.33,1.25q3.12,3,1.51,4.64a2.18,2.18,0,0,1-1.71.79,5.14,5.14,0,0,1-2.51-1.17l-1.42,2A5.75,5.75,0,0,0,117.05,41a5.31,5.31,0,0,0,3.26-1.86,4.87,4.87,0,0,0,1.49-3.7q-.12-2-2.89-4.61l-1-.95,6.64-7a1.44,1.44,0,0,0,.08-2l-1.52-1.43q-2.79-2.64-4.71-2.71a4.75,4.75,0,0,0-3.62,1.74,5,5,0,0,0-1.59,3.79"/></clipPath><clipPath id="clip-path-2" transform="translate(-4.4 -4.23)"><path class="cls-1" d="M119.05,29.63l.52.49q2.76,2.63,4.76,2.63a4.8,4.8,0,0,0,3.61-1.7,5.24,5.24,0,0,0,1.68-3.35A5.74,5.74,0,0,0,127.83,24l-1.93,1.53a5.14,5.14,0,0,1,1.3,2.44,2.21,2.21,0,0,1-.69,1.76c-1.06,1.12-2.63.71-4.71-1.26l-.85-.8Z"/></clipPath></defs><line class="cls-2" x1="0.69" y1="38.07" x2="0.69" y2="35.05"/><line class="cls-2" x1="0.5" y1="31.62" x2="0.5" y2="27.53"/><path class="cls-2" d="M6,28.84s.3-3,1.21-4.24" transform="translate(-4.4 -4.23)"/><path class="cls-2" d="M8.63,21.88a5.77,5.77,0,0,1,2.42-3.53" transform="translate(-4.4 -4.23)"/><path class="cls-2" d="M12.67,15.73s1.51-2.22,3-2.73" transform="translate(-4.4 -4.23)"/><path class="cls-2" d="M18.22,11.29a10.47,10.47,0,0,1,3.53-2.12" transform="translate(-4.4 -4.23)"/><path class="cls-2" d="M25,7.66A14.06,14.06,0,0,1,28.5,6.55" transform="translate(-4.4 -4.23)"/><path class="cls-2" d="M31.93,5.64a13.94,13.94,0,0,1,3.84-.4" transform="translate(-4.4 -4.23)"/><path class="cls-2" d="M38.89,4.73s4.74.1,4.44,0" transform="translate(-4.4 -4.23)"/><path class="cls-2" d="M46.46,4.78a27.15,27.15,0,0,1,4.34.42" transform="translate(-4.4 -4.23)"/><path class="cls-2" d="M53.72,5.64a15.72,15.72,0,0,1,4,1.46" transform="translate(-4.4 -4.23)"/><path class="cls-2" d="M61,7.66a11.06,11.06,0,0,1,3.13,1.91" transform="translate(-4.4 -4.23)"/><path class="cls-2" d="M67.94,11.29a7.34,7.34,0,0,1,2.73,2.22" transform="translate(-4.4 -4.23)"/><path class="cls-2" d="M73.09,14.37c.1.65,2.12,2.67,2.72,4" transform="translate(-4.4 -4.23)"/><path class="cls-2" d="M77.93,20.67a8.55,8.55,0,0,1,1.21,3.23" transform="translate(-4.4 -4.23)"/><line class="cls-2" x1="75.65" y1="23.4" x2="75.65" y2="26.62"/><path class="cls-2" d="M79.14,34.39A6.25,6.25,0,0,1,76.32,37" transform="translate(-4.4 -4.23)"/><path class="cls-2" d="M73.09,38.52a6.94,6.94,0,0,1-4.34-.6" transform="translate(-4.4 -4.23)"/><path class="cls-2" d="M64.11,32.47a26.51,26.51,0,0,0,2.22,3.23" transform="translate(-4.4 -4.23)"/><path class="cls-2" d="M62.55,25.51s-.36,2.62.55,3.73" transform="translate(-4.4 -4.23)"/><path class="cls-2" d="M64.61,11.29s-.92,0-1.82,3.83" transform="translate(-4.4 -4.23)"/><path class="cls-2" d="M61.89,22.28s-.4-3.33,0-3.93" transform="translate(-4.4 -4.23)"/><path class="cls-2" d="M66.33,8.62A6.7,6.7,0,0,1,70.06,7.1" transform="translate(-4.4 -4.23)"/><path class="cls-2" d="M73.09,6.37a14,14,0,0,1,4.23,0" transform="translate(-4.4 -4.23)"/><path class="cls-2" d="M80.45,6.55a23.14,23.14,0,0,1,3.83.55" transform="translate(-4.4 -4.23)"/><path class="cls-2" d="M87.76,7.86a6.2,6.2,0,0,1,3.38,1.71" transform="translate(-4.4 -4.23)"/><path class="cls-2" d="M94.85,10.89A16,16,0,0,1,98,13" transform="translate(-4.4 -4.23)"/><path class="cls-2" d="M100.73,14.37c.5.25,3.32,2,3.32,2" transform="translate(-4.4 -4.23)"/><path class="cls-2" d="M106.37,18.35a16,16,0,0,1,2.37,2" transform="translate(-4.4 -4.23)"/><path class="cls-1" d="M117.66,24.5c-2.08-2-2.58-3.52-1.49-4.66s2.61-.69,4.69,1.28l1.1,1a.39.39,0,0,1,0,.45l-3,3.15Zm-4.47-2.29c.08,1.33,1,2.87,2.89,4.61l1,.95-5.54,5.85-.12.07a.39.39,0,0,1-.33,0l-1.1-1c-2.07-2-2.59-3.5-1.53-4.61s2.66-.74,4.74,1.23l.84.8,1.9-2-.52-.49q-2.76-2.62-4.76-2.63a5,5,0,0,0-3.7,1.79,4.76,4.76,0,0,0-1.53,3.71q.16,1.92,3,4.56l1.52,1.43a1.43,1.43,0,0,0,2-.19L116,31.88l1.33,1.25q3.12,3,1.51,4.64a2.18,2.18,0,0,1-1.71.79,5.14,5.14,0,0,1-2.51-1.17l-1.42,2A5.75,5.75,0,0,0,117.05,41a5.31,5.31,0,0,0,3.26-1.86,4.87,4.87,0,0,0,1.49-3.7q-.12-2-2.89-4.61l-1-.95,6.64-7a1.44,1.44,0,0,0,.08-2l-1.52-1.43q-2.79-2.64-4.71-2.71a4.75,4.75,0,0,0-3.62,1.74,5,5,0,0,0-1.59,3.79" transform="translate(-4.4 -4.23)"/><g class="cls-3"><rect class="cls-1" x="106.79" y="19.7" width="21.42" height="18.25" transform="translate(11.41 90.13) rotate(-46.59)"/></g><path class="cls-1" d="M119.05,29.63l.52.49q2.76,2.63,4.76,2.63a4.8,4.8,0,0,0,3.61-1.7,5.24,5.24,0,0,0,1.68-3.35A5.74,5.74,0,0,0,127.83,24l-1.93,1.53a5.14,5.14,0,0,1,1.3,2.44,2.21,2.21,0,0,1-.69,1.76c-1.06,1.12-2.63.71-4.71-1.26l-.85-.8Z" transform="translate(-4.4 -4.23)"/><g class="cls-4"><rect class="cls-1" x="120.16" y="24.78" width="10.16" height="7.44" transform="translate(14.07 95.66) rotate(-46.59)"/></g></svg>