<svg id="Layer_1" data-name="Layer 1" xmlns="http://www.w3.org/2000/svg" xmlns:xlink="http://www.w3.org/1999/xlink" viewBox="0 0 127.09 38.64"><defs><style>.cls-1{fill:#fff;}.cls-2{fill:none;stroke:#fff;stroke-miterlimit:10;}.cls-3{clip-path:url(#clip-path);}.cls-4{clip-path:url(#clip-path-2);}</style><clipPath id="clip-path" transform="translate(-3.04 -4.23)"><path class="cls-1" d="M15.54,25.76l-3-3.15a.37.37,0,0,1,0-.45l1.1-1c2.08-2,3.64-2.39,4.69-1.28s.6,2.7-1.48,4.66Zm5.79-3.55a5,5,0,0,0-1.59-3.79,4.75,4.75,0,0,0-3.62-1.74q-1.92.08-4.71,2.71L9.9,20.82a1.44,1.44,0,0,0,.07,2l6.64,7-1,.95c-1.84,1.74-2.81,3.28-2.89,4.61a4.84,4.84,0,0,0,1.5,3.7A5.29,5.29,0,0,0,17.47,41a5.72,5.72,0,0,0,3.84-1.58l-1.42-2a5.08,5.08,0,0,1-2.5,1.17,2.19,2.19,0,0,1-1.72-.79q-1.59-1.68,1.51-4.64l1.33-1.25,4.08,4.31a1.44,1.44,0,0,0,2,.19L26.13,35q2.79-2.64,3-4.56a4.69,4.69,0,0,0-1.53-3.71,5,5,0,0,0-3.7-1.79q-2,0-4.76,2.63l-.52.49,1.9,2,.84-.8q3.12-3,4.75-1.23T24.53,32.6l-1.1,1a.38.38,0,0,1-.33,0L23,33.62l-5.54-5.85,1-.95q2.77-2.61,2.89-4.61"/></clipPath><clipPath id="clip-path-2" transform="translate(-3.04 -4.23)"><path class="cls-1" d="M15.47,29.63l-.51.49q-2.78,2.63-4.77,2.63a4.83,4.83,0,0,1-3.61-1.7A5.24,5.24,0,0,1,4.9,27.7,5.74,5.74,0,0,1,6.69,24l1.93,1.53a5.23,5.23,0,0,0-1.3,2.44A2.21,2.21,0,0,0,8,29.68c1.07,1.12,2.64.71,4.72-1.26l.84-.8Z"/></clipPath></defs><line class="cls-2" x1="126.39" y1="38.07" x2="126.39" y2="35.05"/><line class="cls-2" x1="126.59" y1="31.62" x2="126.59" y2="27.53"/><path class="cls-2" d="M128.56,28.84s-.3-3-1.21-4.24" transform="translate(-3.04 -4.23)"/><path class="cls-2" d="M125.89,21.88a5.77,5.77,0,0,0-2.42-3.53" transform="translate(-3.04 -4.23)"/><path class="cls-2" d="M121.86,15.73s-1.52-2.22-3-2.73" transform="translate(-3.04 -4.23)"/><path class="cls-2" d="M116.31,11.29a10.47,10.47,0,0,0-3.53-2.12" transform="translate(-3.04 -4.23)"/><path class="cls-2" d="M109.55,7.66A14.06,14.06,0,0,0,106,6.55" transform="translate(-3.04 -4.23)"/><path class="cls-2" d="M102.59,5.64a13.91,13.91,0,0,0-3.83-.4" transform="translate(-3.04 -4.23)"/><path class="cls-2" d="M95.63,4.73s-4.74.1-4.44,0" transform="translate(-3.04 -4.23)"/><path class="cls-2" d="M88.07,4.78a27.06,27.06,0,0,0-4.34.42" transform="translate(-3.04 -4.23)"/><path class="cls-2" d="M80.8,5.64a15.58,15.58,0,0,0-4,1.46" transform="translate(-3.04 -4.23)"/><path class="cls-2" d="M73.54,7.66a11.06,11.06,0,0,0-3.13,1.91" transform="translate(-3.04 -4.23)"/><path class="cls-2" d="M66.58,11.29a7.28,7.28,0,0,0-2.72,2.22" transform="translate(-3.04 -4.23)"/><path class="cls-2" d="M61.44,14.37c-.1.65-2.12,2.67-2.73,4" transform="translate(-3.04 -4.23)"/><path class="cls-2" d="M56.6,20.67a8.65,8.65,0,0,0-1.22,3.23" transform="translate(-3.04 -4.23)"/><line class="cls-2" x1="51.44" y1="23.4" x2="51.44" y2="26.62"/><path class="cls-2" d="M55.38,34.39A6.24,6.24,0,0,0,58.21,37" transform="translate(-3.04 -4.23)"/><path class="cls-2" d="M61.44,38.52a6.9,6.9,0,0,0,4.33-.6" transform="translate(-3.04 -4.23)"/><path class="cls-2" d="M70.41,32.47a26.51,26.51,0,0,1-2.22,3.23" transform="translate(-3.04 -4.23)"/><path class="cls-2" d="M72,25.51s.35,2.62-.56,3.73" transform="translate(-3.04 -4.23)"/><path class="cls-2" d="M69.91,11.29s.92,0,1.82,3.83" transform="translate(-3.04 -4.23)"/><path class="cls-2" d="M72.63,22.28s.41-3.33,0-3.93" transform="translate(-3.04 -4.23)"/><path class="cls-2" d="M68.19,8.62A6.7,6.7,0,0,0,64.46,7.1" transform="translate(-3.04 -4.23)"/><path class="cls-2" d="M61.44,6.37a14,14,0,0,0-4.24,0" transform="translate(-3.04 -4.23)"/><path class="cls-2" d="M54.07,6.55a23.28,23.28,0,0,0-3.83.55" transform="translate(-3.04 -4.23)"/><path class="cls-2" d="M46.76,7.86a6.2,6.2,0,0,0-3.38,1.71" transform="translate(-3.04 -4.23)"/><path class="cls-2" d="M39.67,10.89A16,16,0,0,0,36.57,13" transform="translate(-3.04 -4.23)"/><path class="cls-2" d="M33.8,14.37c-.51.25-3.33,2-3.33,2" transform="translate(-3.04 -4.23)"/><path class="cls-2" d="M28.15,18.35a16.49,16.49,0,0,0-2.37,2" transform="translate(-3.04 -4.23)"/><path class="cls-1" d="M15.54,25.76l-3-3.15a.37.37,0,0,1,0-.45l1.1-1c2.08-2,3.64-2.39,4.69-1.28s.6,2.7-1.48,4.66Zm5.79-3.55a5,5,0,0,0-1.59-3.79,4.75,4.75,0,0,0-3.62-1.74q-1.92.08-4.71,2.71L9.9,20.82a1.44,1.44,0,0,0,.07,2l6.64,7-1,.95c-1.84,1.74-2.81,3.28-2.89,4.61a4.84,4.84,0,0,0,1.5,3.7A5.29,5.29,0,0,0,17.47,41a5.72,5.72,0,0,0,3.84-1.58l-1.42-2a5.08,5.08,0,0,1-2.5,1.17,2.19,2.19,0,0,1-1.72-.79q-1.59-1.68,1.51-4.64l1.33-1.25,4.08,4.31a1.44,1.44,0,0,0,2,.19L26.13,35q2.79-2.64,3-4.56a4.69,4.69,0,0,0-1.53-3.71,5,5,0,0,0-3.7-1.79q-2,0-4.76,2.63l-.52.49,1.9,2,.84-.8q3.12-3,4.75-1.23T24.53,32.6l-1.1,1a.38.38,0,0,1-.33,0L23,33.62l-5.54-5.85,1-.95q2.77-2.61,2.89-4.61" transform="translate(-3.04 -4.23)"/><g class="cls-3"><rect class="cls-1" x="7.9" y="18.11" width="18.25" height="21.42" transform="translate(-18.19 15.35) rotate(-43.41)"/></g><path class="cls-1" d="M15.47,29.63l-.51.49q-2.78,2.63-4.77,2.63a4.83,4.83,0,0,1-3.61-1.7A5.24,5.24,0,0,1,4.9,27.7,5.74,5.74,0,0,1,6.69,24l1.93,1.53a5.23,5.23,0,0,0-1.3,2.44A2.21,2.21,0,0,0,8,29.68c1.07,1.12,2.64.71,4.72-1.26l.84-.8Z" transform="translate(-3.04 -4.23)"/><g class="cls-4"><rect class="cls-1" x="5.56" y="23.42" width="7.44" height="10.16" transform="translate(-20.08 9.94) rotate(-43.41)"/></g></svg>