<?xml version="1.0" encoding="UTF-8" standalone="no"?> <svg width="64" height="64" viewBox="0 0 64 64" fill="none" xmlns="http://www.w3.org/2000/svg">
<path d="M36.15 46.0699C35.953 46.0436 35.7528 46.0564 35.5607 46.1075C35.3687 46.1587 35.1886 46.2471 35.0308 46.3678C34.8729 46.4885 34.7404 46.6392 34.6407 46.8111C34.5411 46.983 34.4763 47.1729 34.45 47.3699C34.4237 47.5669 34.4365 47.7671 34.4876 47.9591C34.5388 48.1512 34.6272 48.3313 34.7479 48.4891C34.8686 48.647 35.0193 48.7795 35.1912 48.8792C35.3631 48.9788 35.553 49.0436 35.75 49.0699C44.65 50.2399 47.64 52.6099 47.64 53.5099C47.64 55.2099 40.2 58.5099 26.57 58.5099C12.94 58.5099 5.5 55.1899 5.5 53.4899C5.5 52.5899 8.5 50.2199 17.4 49.0499C17.597 49.0236 17.7869 48.9588 17.9588 48.8592C18.1307 48.7595 18.2814 48.627 18.4021 48.4691C18.5228 48.3113 18.6112 48.1312 18.6624 47.9391C18.7135 47.7471 18.7263 47.5469 18.7 47.3499C18.6737 47.1529 18.6089 46.963 18.5093 46.7911C18.4096 46.6192 18.2771 46.4685 18.1192 46.3478C17.9614 46.2271 17.7813 46.1387 17.5892 46.0875C17.3972 46.0364 17.197 46.0236 17 46.0499C12.64 46.6299 2.5 48.5099 2.5 53.4699C2.5 58.7299 14.61 61.4699 26.57 61.4699C38.53 61.4699 50.64 58.7199 50.64 53.4699C50.64 48.5299 40.5 46.6499 36.15 46.0699Z" fill="white"/>
<path d="M51.08 18.23L61.08 7.78997C61.2839 7.57801 61.421 7.31078 61.4743 7.02151C61.5275 6.73224 61.4945 6.4337 61.3794 6.16303C61.2643 5.89235 61.0722 5.66148 60.8269 5.49914C60.5817 5.3368 60.2941 5.25015 60 5.24997H30.53C30.1808 4.31902 29.5157 3.54037 28.6507 3.05011C27.7857 2.55984 26.776 2.38913 25.7979 2.56783C24.8198 2.74653 23.9357 3.26326 23.2999 4.02771C22.6642 4.79216 22.3173 5.75572 22.32 6.74997V51.29C22.32 52.4171 22.7677 53.4981 23.5648 54.2952C24.3618 55.0922 25.4428 55.54 26.57 55.54C27.6971 55.54 28.7781 55.0922 29.5752 54.2952C30.3722 53.4981 30.82 52.4171 30.82 51.29V31.21H60C60.2941 31.2114 60.5821 31.1258 60.8277 30.9639C61.0733 30.8019 61.2655 30.5709 61.38 30.3C61.4975 30.0309 61.5317 29.7327 61.4782 29.444C61.4248 29.1553 61.2861 28.8891 61.08 28.68L51.08 18.23ZM27.82 51.29C27.82 51.6215 27.6883 51.9394 27.4538 52.1739C27.2194 52.4083 26.9015 52.54 26.57 52.54C26.2384 52.54 25.9205 52.4083 25.6861 52.1739C25.4517 51.9394 25.32 51.6215 25.32 51.29V6.74997C25.32 6.41845 25.4517 6.10051 25.6861 5.86608C25.9205 5.63166 26.2384 5.49997 26.57 5.49997C26.9015 5.49997 27.2194 5.63166 27.4538 5.86608C27.6883 6.10051 27.82 6.41845 27.82 6.74997V51.29ZM30.82 28.21V8.20997H56.49L47.92 17.15C47.6511 17.4294 47.5009 17.8022 47.5009 18.19C47.5009 18.5778 47.6511 18.9505 47.92 19.23L56.49 28.17L30.82 28.21Z" fill="white"/>
</svg>
