<svg id="Layer_1" data-name="Layer 1" xmlns="http://www.w3.org/2000/svg" viewBox="0 0 29.3 34.6"><defs><style>.cls-1{fill:none;stroke:#66b5d8;stroke-miterlimit:10;stroke-width:0.75px;}</style></defs><path class="cls-1" d="M9.93,10.43s-3.74,2.91-1.24,6.23c0,0-1.09.85-.35,2.91a3.91,3.91,0,0,0-.48,3.21,2.86,2.86,0,0,1,2.58,1.46s5.83-3,5.59-5.89" transform="translate(-0.39 -0.45)"/><path class="cls-1" d="M10.8,15.33s-1.81-.1-2,1.31" transform="translate(-0.39 -0.45)"/><circle class="cls-1" cx="11.7" cy="14.4" r="1.56"/><circle class="cls-1" cx="15.61" cy="16.6" r="1.56"/><path class="cls-1" d="M14.75,7.27l-.31,5.49s1.05-.68,1.56,1.07l4.1-3.46" transform="translate(-0.39 -0.45)"/><path class="cls-1" d="M13.38,14s.4-1.1,1.06-1.2" transform="translate(-0.39 -0.45)"/><path class="cls-1" d="M16,15.5a2.8,2.8,0,0,0,0-1.67" transform="translate(-0.39 -0.45)"/><path class="cls-1" d="M7.51,21.22S1.33,18.42,4,10.52c0,0-4-5.83,5.7-9.72,0,0-4.24,1.94-1,7.44,0,0-5.55,5.68-.46,11.6" transform="translate(-0.39 -0.45)"/><path class="cls-1" d="M6.31,12.66A2.43,2.43,0,0,0,4,10.54" transform="translate(-0.39 -0.45)"/><path class="cls-1" d="M7.71,6.06s2.22-.54,3.19,0c0,0,.61,1.13-2.19,2.21" transform="translate(-0.39 -0.45)"/><path class="cls-1" d="M7.78,22.84,5,28S1.85,29.83,1.89,31c0,0,.1,2.52,3.39.36,0,0-.29,3.45,1.3,3.26,0,0,.6,0,1-1.12V30.16l3-4.22s.26-1.85-.52-1.87" transform="translate(-0.39 -0.45)"/><path class="cls-1" d="M4.9,28.22a4.43,4.43,0,0,0,2.61,2.15" transform="translate(-0.39 -0.45)"/><path class="cls-1" d="M5.83,26.45a4.86,4.86,0,0,0,2.92,2.21" transform="translate(-0.39 -0.45)"/><path class="cls-1" d="M9.58,27.1a5.21,5.21,0,0,1-3-2.49l-3.19-.08S2,24.53.72,22.22" transform="translate(-0.39 -0.45)"/><path class="cls-1" d="M7.51,22.22H4.45a4,4,0,0,1-3.12-2.35" transform="translate(-0.39 -0.45)"/><path class="cls-1" d="M10.42,26.06A6.81,6.81,0,0,0,15,30.5" transform="translate(-0.39 -0.45)"/><path class="cls-1" d="M11.58,23.36a7.54,7.54,0,0,0,5.08,4.86" transform="translate(-0.39 -0.45)"/><path class="cls-1" d="M13.69,21.91S20,25.09,23.86,13.63c0,0,.74-.21,1.39,2.6" transform="translate(-0.39 -0.45)"/><path class="cls-1" d="M15.23,20.62s3,1.22,5-4.19" transform="translate(-0.39 -0.45)"/><path class="cls-1" d="M22.55,16.43s4.79,1.21,6.35-4.51c0,0,2.61,5.84-5.29,9.78,0,0-6.67,6.89-10.69,1.11" transform="translate(-0.39 -0.45)"/><path class="cls-1" d="M20.75,19.64a3.57,3.57,0,0,0,2.86,2.06" transform="translate(-0.39 -0.45)"/></svg>