<svg id="Layer_1" data-name="Layer 1" xmlns="http://www.w3.org/2000/svg" xmlns:xlink="http://www.w3.org/1999/xlink" viewBox="0 0 30.61 34.55"><defs><style>.cls-1,.cls-3{fill:none;}.cls-2{clip-path:url(#clip-path);}.cls-3{stroke:#f6a314;stroke-miterlimit:10;stroke-width:0.75px;}</style><clipPath id="clip-path" transform="translate(-4.56 11.62)"><rect class="cls-1" x="-0.08" y="0.27" width="29.3" height="34.6"/></clipPath></defs><g class="cls-2"><path class="cls-3" d="M14.1-1.64s-3.74,2.91-1.24,6.23c0,0-1.09.85-.35,2.91A4,4,0,0,0,12,10.71a2.86,2.86,0,0,1,2.58,1.46s5.83-3,5.59-5.89" transform="translate(-4.56 11.62)"/><path class="cls-3" d="M15,3.26s-1.81-.1-2,1.31" transform="translate(-4.56 11.62)"/><circle class="cls-3" cx="11.7" cy="14.4" r="1.56"/><circle class="cls-3" cx="15.61" cy="16.6" r="1.56"/><path class="cls-3" d="M18.92-4.8,18.61.69S19.66,0,20.17,1.76l4.1-3.46" transform="translate(-4.56 11.62)"/><path class="cls-3" d="M17.55,1.93S18,.83,18.61.73" transform="translate(-4.56 11.62)"/><path class="cls-3" d="M20.17,3.43a2.8,2.8,0,0,0,0-1.67" transform="translate(-4.56 11.62)"/><path class="cls-3" d="M11.68,9.15S5.5,6.35,8.17-1.55c0,0-4-5.83,5.7-9.72,0,0-4.24,1.94-1,7.44,0,0-5.55,5.68-.46,11.6" transform="translate(-4.56 11.62)"/><path class="cls-3" d="M10.48.59A2.43,2.43,0,0,0,8.17-1.53" transform="translate(-4.56 11.62)"/><path class="cls-3" d="M11.88-6s2.22-.54,3.19,0c0,0,.61,1.13-2.19,2.21" transform="translate(-4.56 11.62)"/><path class="cls-3" d="M12,10.77,9.17,15.93s-3.15,1.83-3.11,3c0,0,.1,2.52,3.39.36,0,0-.29,3.45,1.3,3.26,0,0,.6,0,1-1.12V18.09L14.59,14c-.06-.14.18-2.55-.36-2" transform="translate(-4.56 11.62)"/><path class="cls-3" d="M9.07,16.15a4.43,4.43,0,0,0,2.61,2.15" transform="translate(-4.56 11.62)"/><path class="cls-3" d="M10,14.38a4.88,4.88,0,0,0,2.92,2.21" transform="translate(-4.56 11.62)"/><path class="cls-3" d="M13.75,15a5.21,5.21,0,0,1-3-2.49l-3.19-.08s-1.39,0-2.67-2.31" transform="translate(-4.56 11.62)"/><path class="cls-3" d="M11.68,10.15H8.62A4,4,0,0,1,5.5,7.8" transform="translate(-4.56 11.62)"/><path class="cls-3" d="M14.59,14a6.81,6.81,0,0,0,4.58,4.44" transform="translate(-4.56 11.62)"/><path class="cls-3" d="M15.75,11.29a7.54,7.54,0,0,0,5.08,4.86" transform="translate(-4.56 11.62)"/><path class="cls-3" d="M19.54,8.29s5.92,2.53,10.67-9" transform="translate(-4.56 11.62)"/><path class="cls-3" d="M18.61,9.45A15.53,15.53,0,0,0,33.08,5.73" transform="translate(-4.56 11.62)"/><path class="cls-3" d="M17.22,10.59s8.55,4.63,17.81.64" transform="translate(-4.56 11.62)"/></g></svg>