<svg id="Layer_1" data-name="Layer 1" xmlns="http://www.w3.org/2000/svg" viewBox="0 0 29.16 29.16"><defs><style>.cls-1{fill:none;stroke:#922783;stroke-miterlimit:10;stroke-width:0.75px;}</style></defs><circle class="cls-1" cx="14.58" cy="14.58" r="14.21"/><path class="cls-1" d="M6.62,6.2s3.86.83,2.08,4c0,0,4.35,1.79-.37,3.85,0,0-4.49-.72-3.31,2.5a4.34,4.34,0,0,1,1.31,5.37S4.63,25,7.68,25.84c0,0,2.94,1.26,1,4.49" transform="translate(-0.47 -3.06)"/><path class="cls-1" d="M10.53,4.17S12.26,9,15.05,8.68c0,0,3.5-2.6,5.4-.91,0,0,3.65,2.08,5.09.29" transform="translate(-0.47 -3.06)"/><path class="cls-1" d="M26.14,26.52s-3.11-3.34-.6-6.82c0,0-3.51-2.4-1-4.18a2.73,2.73,0,0,0,1.58-2.95s-2.73-3.42-6.05,0c0,0-2.85-.37-3.32,3.42,0,0-.12,3.06-5.46,1.65,0,0-4.62,1.2-2.49,5.12,0,0,3.92,1.18,3.8,3.2a10.3,10.3,0,0,1,6.83,5.19" transform="translate(-0.47 -3.06)"/><path class="cls-1" d="M18.9,21.1s2.61-3.13,4.27,0c0,0,1.19,2.49-4.27,6,0,0-5.59-3.67-4.11-6C14.79,21.1,16.65,17.78,18.9,21.1Z" transform="translate(-0.47 -3.06)"/></svg>