<svg id="Layer_1" data-name="Layer 1" xmlns="http://www.w3.org/2000/svg" viewBox="0 0 30.1 35.28"><defs><style>.cls-1{fill:none;stroke:#66b5d8;stroke-miterlimit:10;stroke-width:0.75px;}</style></defs><path class="cls-1" d="M12.72,10.7s-3.84,3-1.27,6.41c0,0-1.12.88-.36,3a4,4,0,0,0-.49,3.3,2.93,2.93,0,0,1,2.65,1.5s6-3.46,5.75-6.41" transform="translate(-2.94 -0.48)"/><path class="cls-1" d="M13.62,15.75s-1.84,0-2,1.46" transform="translate(-2.94 -0.48)"/><circle class="cls-1" cx="12.01" cy="14.77" r="1.6"/><circle class="cls-1" cx="16.03" cy="17.04" r="1.6"/><path class="cls-1" d="M17.68,7.46l-.32,5.64s1.08-.7,1.61,1.1l4.22-3.56" transform="translate(-2.94 -0.48)"/><path class="cls-1" d="M16.27,14.34s.41-1.14,1.09-1.24" transform="translate(-2.94 -0.48)"/><path class="cls-1" d="M19,15.92a2.83,2.83,0,0,0,0-1.72" transform="translate(-2.94 -0.48)"/><path class="cls-1" d="M10.24,21.8s-6.36-2.88-3.63-11c0,0-4.09-6,5.86-10,0,0-4.36,2-1,7.65,0,0-5.71,5.84-.47,11.93" transform="translate(-2.94 -0.48)"/><path class="cls-1" d="M9,13a2.48,2.48,0,0,0-2.41-2.18" transform="translate(-2.94 -0.48)"/><path class="cls-1" d="M10.44,6.21s2.29-.55,3.28,0c0,0,.63,1.16-2.25,2.27" transform="translate(-2.94 -0.48)"/><path class="cls-1" d="M10.51,23.47,7.67,28.75S4.41,30.66,4.46,31.9c0,0,.1,2.6,3.48.37,0,0-.33,3.28,1.31,3.09,0,0,.65.26,1.11-.89V31l3.1-4.34s.44-1.54-.36-1.56" transform="translate(-2.94 -0.48)"/><path class="cls-1" d="M7.55,29a4.53,4.53,0,0,0,2.69,2.21" transform="translate(-2.94 -0.48)"/><path class="cls-1" d="M8.51,27.18a5,5,0,0,0,3,2.28" transform="translate(-2.94 -0.48)"/><path class="cls-1" d="M12.37,27.85a5.36,5.36,0,0,1-3.09-2.56L6,25.21s-1.39,0-2.75-2.38" transform="translate(-2.94 -0.48)"/><path class="cls-1" d="M10.24,22.83H7.09a4.09,4.09,0,0,1-3.21-2.42" transform="translate(-2.94 -0.48)"/><path class="cls-1" d="M13.17,26.72a7.19,7.19,0,0,0,4.77,4.63" transform="translate(-2.94 -0.48)"/><path class="cls-1" d="M14.42,24a7.75,7.75,0,0,0,5.23,5" transform="translate(-2.94 -0.48)"/><path class="cls-1" d="M16.59,22.51S23.05,25.78,27.05,14c0,0,.94.18,1.61,3.07" transform="translate(-2.94 -0.48)"/><path class="cls-1" d="M18.18,21.19s3.07,1.25,5.11-4.31" transform="translate(-2.94 -0.48)"/><path class="cls-1" d="M25.71,16.88s4.92,1.24,6.53-4.64c0,0,2.68,6-5.44,10.06,0,0-6.86,7.08-11,1.14" transform="translate(-2.94 -0.48)"/><path class="cls-1" d="M23.85,20.18A3.7,3.7,0,0,0,26.8,22.3" transform="translate(-2.94 -0.48)"/></svg>