<?xml version="1.0" encoding="UTF-8" standalone="no"?> <svg width="80" height="80" viewBox="0 0 512 512" fill="none" xmlns="http://www.w3.org/2000/svg">
<path d="M495.239 78.9036C494.469 76.1256 492.265 73.9766 489.469 73.2776L457.922 65.3906L464.901 58.4116C468.025 55.2876 468.025 50.2226 464.901 47.0986C461.777 43.9746 456.713 43.9736 453.587 47.0986L446.608 54.0776L438.721 22.5306C438.023 19.7346 435.873 17.5306 433.096 16.7616C430.317 15.9916 427.342 16.7756 425.303 18.8146L380.048 64.0686C378.062 66.0556 377.263 68.9396 377.944 71.6656L387.273 108.982C379.042 106.274 369.68 108.021 362.872 114.324L352.196 124.21C315.741 95.6576 270.501 79.9996 224 79.9996C109.309 79.9996 16 173.309 16 288C16 402.691 109.309 496 224 496C338.691 496 432 402.691 432 288C432 241.499 416.342 196.259 387.79 159.804L397.676 149.127C403.979 142.32 405.726 132.958 403.018 124.726L440.334 134.055C440.977 134.216 441.628 134.294 442.274 134.294C444.37 134.294 446.413 133.469 447.931 131.951L493.186 86.6956C495.225 84.6576 496.009 81.6816 495.239 78.9036ZM364.379 161.537L353.501 173.286L338.715 158.5L350.464 147.622L364.379 161.537ZM320.865 208.532L309.987 220.28L291.719 202.013L303.468 191.134L320.865 208.532ZM315.217 180.256L326.966 169.378L342.622 185.034L331.744 196.783L315.217 180.256ZM233.702 266.985L218.343 282.343C215.219 285.467 215.219 290.532 218.343 293.656C219.905 295.218 221.952 295.999 224 295.999C226.047 295.999 228.095 295.218 229.657 293.656L245.017 278.296C249.701 281.025 255.029 282.48 260.593 282.48C260.799 282.48 261.005 282.478 261.212 282.474C264.76 282.406 268.193 281.746 271.415 280.557C271.796 283.005 271.999 285.489 271.999 288C271.999 314.467 250.467 336 223.999 336C197.531 336 175.999 314.467 175.999 288C175.999 261.533 197.531 240 223.999 240C226.51 240 228.993 240.203 231.442 240.584C230.253 243.806 229.593 247.24 229.525 250.788C229.415 256.576 230.871 262.127 233.702 266.985ZM271.69 261.641C268.876 264.681 265.045 266.398 260.905 266.477C256.759 266.562 252.87 264.989 249.941 262.059C247.012 259.13 245.443 255.236 245.522 251.095C245.602 246.954 247.32 243.123 250.359 240.309L279.97 212.892L299.108 232.03L271.69 261.641ZM241.724 226.499C235.984 224.846 230.045 224 224 224C188.71 224 160 252.71 160 288C160 323.29 188.71 352 224 352C259.29 352 288 323.29 288 288C288 281.954 287.154 276.015 285.501 270.275L309.518 244.336C316.399 257.79 320 272.698 320 288C320 340.935 276.935 384 224 384C171.065 384 128 340.935 128 288C128 235.065 171.065 192 224 192C239.303 192 254.21 195.601 267.663 202.482L241.724 226.499ZM280.035 191.026C263.043 181.188 243.806 176 224 176C162.243 176 112 226.243 112 288C112 349.757 162.243 400 224 400C285.757 400 336 349.757 336 288C336 268.195 330.812 248.957 320.974 231.965L343.508 207.628C359.561 231.382 368 258.974 368 288C368 367.402 303.402 432 224 432C144.598 432 80 367.402 80 288C80 208.598 144.598 144 224 144C253.025 144 280.617 152.438 304.373 168.491L280.035 191.026ZM416 288C416 393.869 329.869 480 224 480C118.131 480 32 393.869 32 288C32 182.131 118.131 95.9996 224 95.9996C266.063 95.9996 307.009 109.873 340.298 135.227L316.398 157.356C289.314 138.128 257.514 128 224 128C135.775 128 64 199.776 64 288C64 376.224 135.775 448 224 448C312.225 448 384 376.224 384 288C384 254.486 373.872 222.686 354.643 195.602L376.773 171.702C402.126 204.991 416 245.937 416 288ZM385.936 138.256L375.259 149.787L362.213 136.741L373.745 126.064C375.409 124.523 377.509 123.757 379.606 123.757C381.814 123.757 384.018 124.606 385.706 126.294C388.997 129.586 389.099 134.84 385.936 138.256ZM401.354 99.3326L394.566 72.1796L426.628 40.1186L433.416 67.2706L401.354 99.3326ZM439.82 117.435L412.667 110.647L444.728 78.5856L471.881 85.3736L439.82 117.435Z" fill="url(#paint0_linear_62_11874)"/>
<defs>
<linearGradient id="paint0_linear_62_11874" x1="76.9907" y1="435.009" x2="464.902" y2="47.0976" gradientUnits="userSpaceOnUse">
<stop stop-color="#2d2e83"/>
<stop offset="1" stop-color="#ea5b0c"/>
</linearGradient>
</defs>
</svg>
